<svg width="100%" viewBox="0 0 680 200" xmlns="http://www.w3.org/2000/svg">
<rect x="1" y="1" width="678" height="198" rx="12" fill="#161b22" stroke="#30363d" stroke-width="0.5"/>
<rect x="24" y="20" width="4" height="160" rx="2" fill="#7F77DD"/>
<text font-family="monospace" font-weight="600" font-size="15" fill="#e6edf3" x="44" y="44">COVID-19 &amp; Music Acoustics</text>
<rect x="390" y="30" width="120" height="22" rx="4" fill="#2a2a4a"/>
<text font-family="monospace" font-size="11" font-weight="500" fill="#d2a8ff" x="450" y="45" text-anchor="middle">COGS 108 · WI26</text>
<text font-family="monospace" font-size="12" fill="#8b949e" x="44" y="64">Billboard Top-50 · Pre/post-COVID acoustic feature analysis</text>
<rect x="44" y="80" width="124" height="22" rx="4" fill="#2a2a4a"/>
<text font-family="monospace" font-size="11" font-weight="500" fill="#d2a8ff" x="106" y="95" text-anchor="middle">Spectral Centroid</text>
<rect x="176" y="80" width="112" height="22" rx="4" fill="#2a2a4a"/>
<text font-family="monospace" font-size="11" font-weight="500" fill="#d2a8ff" x="232" y="95" text-anchor="middle">Zero Cross Rate</text>
<rect x="296" y="80" width="96" height="22" rx="4" fill="#2a2a4a"/>
<text font-family="monospace" font-size="11" font-weight="500" fill="#d2a8ff" x="344" y="95" text-anchor="middle">ANOVA / t-test</text>
<line x1="44" y1="116" x2="636" y2="116" stroke="#30363d" stroke-width="0.5"/>
<text font-family="monospace" font-size="12" fill="#8b949e" x="44" y="138">Waveform-derived audio features across 2017–2019 vs 2022;</text>
<text font-family="monospace" font-size="12" fill="#8b949e" x="44" y="158">results show stable acoustic properties despite pandemic disruption</text>
<rect x="500" y="118" width="136" height="58" rx="8" fill="#2a2a4a" stroke="#30363d" stroke-width="0.5"/>
<text font-family="monospace" font-size="11" fill="#8b949e" x="568" y="138" text-anchor="middle">Finding</text>
<text font-family="monospace" font-size="14" font-weight="600" fill="#d2a8ff" x="568" y="160" text-anchor="middle">No sig. shift</text>
<text font-family="monospace" font-size="11" fill="#8b949e" x="568" y="176" text-anchor="middle">in acoustic features</text>
</svg>
