<svg width="100%" viewBox="0 0 680 200" xmlns="http://www.w3.org/2000/svg">
<rect x="1" y="1" width="678" height="198" rx="12" fill="#161b22" stroke="#30363d" stroke-width="0.5"/>
<rect x="24" y="20" width="4" height="160" rx="2" fill="#3B8BD4"/>
<text font-family="monospace" font-weight="600" font-size="15" fill="#e6edf3" x="44" y="44">RapidFire SFT</text>
<text font-family="monospace" font-size="12" fill="#8b949e" x="44" y="64">Supervised fine-tuning · Academic paper summarization</text>
<rect x="44" y="80" width="78" height="22" rx="4" fill="#1f3a5f"/>
<text font-family="monospace" font-size="11" font-weight="500" fill="#79c0ff" x="83" y="95" text-anchor="middle">LoRA / PEFT</text>
<rect x="130" y="80" width="88" height="22" rx="4" fill="#1f3a5f"/>
<text font-family="monospace" font-size="11" font-weight="500" fill="#79c0ff" x="174" y="95" text-anchor="middle">Hugging Face</text>
<rect x="226" y="80" width="70" height="22" rx="4" fill="#1f3a5f"/>
<text font-family="monospace" font-size="11" font-weight="500" fill="#79c0ff" x="261" y="95" text-anchor="middle">PyTorch</text>
<rect x="304" y="80" width="96" height="22" rx="4" fill="#1f3a5f"/>
<text font-family="monospace" font-size="11" font-weight="500" fill="#79c0ff" x="352" y="95" text-anchor="middle">TensorBoard</text>
<line x1="44" y1="116" x2="636" y2="116" stroke="#30363d" stroke-width="0.5"/>
<text font-family="monospace" font-size="12" fill="#8b949e" x="44" y="138">Compared base, prompt-engineered, and LoRA fine-tuned models</text>
<text font-family="monospace" font-size="12" fill="#8b949e" x="44" y="158">via controlled evaluation — ROUGE metrics + error analysis</text>
<rect x="500" y="118" width="136" height="58" rx="8" fill="#1f3a5f" stroke="#30363d" stroke-width="0.5"/>
<text font-family="monospace" font-size="11" fill="#8b949e" x="568" y="138" text-anchor="middle">Key metric</text>
<text font-family="monospace" font-size="14" font-weight="600" fill="#79c0ff" x="568" y="160" text-anchor="middle">ROUGE-L</text>
<text font-family="monospace" font-size="11" fill="#8b949e" x="568" y="176" text-anchor="middle">summarization eval</text>
</svg>
