<svg width="100%" viewBox="0 0 680 200" xmlns="http://www.w3.org/2000/svg">
<rect x="1" y="1" width="678" height="198" rx="12" fill="#161b22" stroke="#30363d" stroke-width="0.5"/>
<rect x="24" y="20" width="4" height="160" rx="2" fill="#BA7517"/>
<text font-family="monospace" font-weight="600" font-size="15" fill="#e6edf3" x="44" y="44">c0mpiled</text>
<rect x="160" y="30" width="88" height="22" rx="4" fill="#3a2a0a"/>
<text font-family="monospace" font-size="11" font-weight="500" fill="#d29922" x="204" y="45" text-anchor="middle">🏆 Hackathon</text>
<text font-family="monospace" font-size="12" fill="#8b949e" x="44" y="64">LeetCode interview analytics · Skill reporting tool</text>
<rect x="44" y="80" width="110" height="22" rx="4" fill="#3a2a0a"/>
<text font-family="monospace" font-size="11" font-weight="500" fill="#d29922" x="99" y="95" text-anchor="middle">Topic Analysis</text>
<rect x="162" y="80" width="120" height="22" rx="4" fill="#3a2a0a"/>
<text font-family="monospace" font-size="11" font-weight="500" fill="#d29922" x="222" y="95" text-anchor="middle">Difficulty Trends</text>
<rect x="290" y="80" width="124" height="22" rx="4" fill="#3a2a0a"/>
<text font-family="monospace" font-size="11" font-weight="500" fill="#d29922" x="352" y="95" text-anchor="middle">Readiness Metrics</text>
<line x1="44" y1="116" x2="636" y2="116" stroke="#30363d" stroke-width="0.5"/>
<text font-family="monospace" font-size="12" fill="#8b949e" x="44" y="138">Tracks attempts, normalizes problem data, generates skill reports</text>
<text font-family="monospace" font-size="12" fill="#8b949e" x="44" y="158">with topic-wise insights and interview readiness scoring</text>
<rect x="500" y="118" width="136" height="58" rx="8" fill="#3a2a0a" stroke="#30363d" stroke-width="0.5"/>
<text font-family="monospace" font-size="11" fill="#8b949e" x="568" y="138" text-anchor="middle">Output</text>
<text font-family="monospace" font-size="14" font-weight="600" fill="#d29922" x="568" y="160" text-anchor="middle">Skill Report</text>
<text font-family="monospace" font-size="11" fill="#8b949e" x="568" y="176" text-anchor="middle">per user session</text>
</svg>
