<svg width="100%" viewBox="0 0 680 180" xmlns="http://www.w3.org/2000/svg">
<rect x="1" y="1" width="678" height="178" rx="12" fill="#161b22" stroke="#30363d" stroke-width="0.5"/>
<rect x="24" y="16" width="4" height="148" rx="2" fill="#7F77DD"/>
<text font-family="monospace" font-weight="600" font-size="15" fill="#e6edf3" x="44" y="40">COVID-19 &amp; Music Acoustics</text>
<rect x="390" y="26" width="120" height="22" rx="4" fill="#2a2a4a"/>
<text font-family="monospace" font-size="11" font-weight="500" fill="#d2a8ff" x="450" y="41" text-anchor="middle">COGS 108 · WI26</text>
<text font-family="monospace" font-size="12" fill="#8b949e" x="44" y="60">Billboard Top-50 · Pre/post-COVID acoustic analysis</text>
<rect x="44" y="74" width="124" height="22" rx="4" fill="#2a2a4a"/>
<text font-family="monospace" font-size="11" font-weight="500" fill="#d2a8ff" x="106" y="89" text-anchor="middle">Spectral Centroid</text>
<rect x="176" y="74" width="112" height="22" rx="4" fill="#2a2a4a"/>
<text font-family="monospace" font-size="11" font-weight="500" fill="#d2a8ff" x="232" y="89" text-anchor="middle">Zero Cross Rate</text>
<rect x="296" y="74" width="96" height="22" rx="4" fill="#2a2a4a"/>
<text font-family="monospace" font-size="11" font-weight="500" fill="#d2a8ff" x="344" y="89" text-anchor="middle">ANOVA / t-test</text>
<line x1="44" y1="108" x2="636" y2="108" stroke="#30363d" stroke-width="0.5"/>
<text font-family="monospace" font-size="12" fill="#8b949e" x="44" y="130">Audio features across 2017–2019 vs 2022 show</text>
<text font-family="monospace" font-size="12" fill="#8b949e" x="44" y="150">stable acoustics despite pandemic disruption</text>
<rect x="490" y="110" width="148" height="56" rx="8" fill="#2a2a4a" stroke="#30363d" stroke-width="0.5"/>
<text font-family="monospace" font-size="11" fill="#8b949e" x="564" y="130" text-anchor="middle">Finding</text>
<text font-family="monospace" font-size="14" font-weight="600" fill="#d2a8ff" x="564" y="150" text-anchor="middle">No sig. shift</text>
<text font-family="monospace" font-size="11" fill="#8b949e" x="564" y="166" text-anchor="middle">in acoustic features</text>
</svg>
